<svg width="40" height="39" viewBox="0 0 98 97" fill="none" xmlns="http://www.w3.org/2000/svg">
<path d="M95.5179 48.6185C97.1836 48.9465 98.2684 50.5608 97.9424 52.2245L96.7272 58.4131C96.3913 60.1262 94.692 61.2248 92.9769 60.804C91.3705 60.4108 90.3964 58.7688 90.7145 57.1465L90.7481 56.9806L82.7377 57.3461C82.4967 57.356 82.2872 57.516 82.2122 57.7472C81.4297 60.1104 80.4002 62.363 79.1534 64.4693C79.027 64.6827 79.0467 64.9534 79.2068 65.1431L82.7496 69.3518C83.453 68.6819 84.3718 68.3342 85.3005 68.3342C86.083 68.3342 86.8733 68.5811 87.5432 69.0949C89.1654 70.3358 89.4736 72.6575 88.2327 74.2817L87.2053 75.6233C86 77.2001 83.7534 77.6229 82.1173 76.4947C80.7085 75.5245 80.1987 73.7798 80.7085 72.2643L75.6047 70.0216C75.3735 69.9208 75.1068 69.9801 74.9388 70.1658C72.5756 72.7602 69.8252 74.993 66.7783 76.7753C66.5689 76.8978 66.4562 77.1349 66.4958 77.374L67.8018 85.3408L68.932 84.8883C70.5543 84.2402 72.3998 85.0701 72.9787 86.7398C73.5201 88.3027 72.6705 90.0119 71.1352 90.6244L65.3596 92.9362C63.7394 93.5843 61.8939 92.7545 61.3149 91.0848C60.7735 89.5219 61.6231 87.8127 63.1584 87.1982L63.3145 87.1369L58.6553 80.6085C58.515 80.4109 58.2681 80.324 58.0329 80.3852C55.2489 81.1065 52.3285 81.4937 49.3172 81.4937C46.9342 81.4937 44.6106 81.2507 42.3639 80.7923C42.1268 80.7449 41.8838 80.8456 41.7534 81.0491L37.0922 88.362L37.2562 88.4213C38.7737 88.9745 39.7142 90.4071 39.7142 91.9325C39.7142 92.3593 39.6411 92.792 39.487 93.2148C39.487 95.4022 37.8055 96.5798 35.7506 95.829L30.0224 93.7404C28.1058 93.0429 27.106 90.9386 27.7679 89.016C28.4476 87.0342 30.7061 86.0344 32.6741 86.7516L32.8065 86.7991L33.7549 78.2295C33.7826 77.9885 33.6561 77.7593 33.4407 77.6466C29.813 75.7735 26.5586 73.2779 23.818 70.3002C23.6521 70.1204 23.3932 70.0611 23.168 70.154L16.1772 73.021C16.9676 74.499 16.523 76.3722 15.0806 77.3206C13.5749 78.3105 11.5417 77.8502 10.5142 76.3722L8.72405 73.7936C7.72226 72.3532 7.95542 70.3456 9.33461 69.2589C10.8047 68.101 12.9011 68.4013 14.0017 69.8576L18.9257 64.2934C19.0897 64.1077 19.1173 63.839 18.9968 63.6236C16.9755 59.98 15.5923 55.9333 14.9976 51.6357C14.964 51.3947 14.7881 51.1991 14.553 51.1457L6.68491 49.3279L6.67701 50.2506C6.6691 51.1734 6.28973 52.0092 5.67917 52.6118C5.07059 53.2165 4.2328 53.5879 3.30808 53.5879C1.47048 53.5879 -0.0173813 52.0882 0.000401908 50.2506L0.0517756 44.5343C0.0675829 42.6651 1.61275 41.0903 3.47998 41.1397C5.29189 41.1871 6.73826 42.6769 6.72838 44.4948L14.5392 42.6631C14.7763 42.6078 14.9521 42.4122 14.9837 42.1711C15.5963 37.6265 17.092 33.3605 19.2912 29.551C19.4137 29.3376 19.392 29.0708 19.232 28.8811L15.5074 24.5065L15.1833 24.9333C14.1795 26.2611 12.2629 26.4922 10.9687 25.4154C9.75548 24.4037 9.60728 22.5898 10.5597 21.3312L13.0414 18.0512C13.6184 17.2904 14.4937 16.8893 15.3809 16.8893C15.9954 16.8893 16.6158 17.083 17.1454 17.4821C18.3724 18.4088 18.6609 20.112 17.8508 21.3885L23.0593 23.641C23.2885 23.7398 23.5533 23.6805 23.7232 23.4968C26.1812 20.8016 29.0601 18.4977 32.2572 16.6858C32.4666 16.5653 32.5832 16.3301 32.5476 16.091L31.3482 8.10639L30.2101 8.54504C28.582 9.1714 26.7463 8.31583 26.1911 6.64026C25.6695 5.06941 26.5428 3.3721 28.086 2.77933L33.8912 0.54655C35.5214 -0.0798142 37.355 0.77378 37.9102 2.45133C38.4319 4.0202 37.5605 5.71751 36.0153 6.31226L35.8592 6.37154L40.4276 12.9592C40.5659 13.1588 40.8109 13.2497 41.046 13.1924C43.6977 12.5423 46.4659 12.1985 49.3172 12.1985H49.3211C49.5701 12.1985 49.7934 12.0464 49.8764 11.8112L51.3899 7.57882C49.6373 7.02952 48.4695 5.30059 48.6928 3.41557C48.9477 1.27961 50.9928 -0.237887 53.1287 0.0308369L55.2074 0.291657C57.3255 0.558405 58.9142 2.45528 58.683 4.57939C58.5012 6.23322 57.3117 7.52152 55.8021 7.9167L56.3277 12.5048C56.3554 12.7518 56.5391 12.9533 56.7841 13.0066C60.2973 13.7792 63.6109 15.0853 66.6341 16.834C66.8455 16.9545 67.1063 16.9367 67.294 16.7826L73.5636 11.6946L72.6112 10.9379C71.2419 9.85112 71.0482 7.83766 72.2101 6.50788C73.2968 5.26108 75.2036 5.15042 76.4978 6.17987L81.3684 10.0467C82.7377 11.1315 82.9314 13.1469 81.7695 14.4767C80.6828 15.7216 78.776 15.8322 77.4818 14.8047L77.3494 14.7L73.9924 21.9891C73.8896 22.2085 73.937 22.4673 74.107 22.6412C76.4702 25.0617 78.4816 27.828 80.0584 30.8551C80.173 31.0744 80.4121 31.1989 80.6571 31.1653L85.4171 30.4994C84.7176 28.5472 85.755 26.3836 87.7506 25.7295C89.6534 25.1052 91.7044 26.1623 92.4039 28.0394L93.5005 30.9795C94.1921 32.8389 93.3622 34.9669 91.5444 35.7573C89.8016 36.5141 87.8356 35.8304 86.899 34.2852L82.9492 36.9646C82.7417 37.1049 82.6488 37.3617 82.716 37.6028C83.5281 40.5469 83.9628 43.6451 83.9628 46.8461C83.9628 47.3816 83.951 47.9131 83.9253 48.4407C83.9154 48.6837 84.0517 48.907 84.273 49.0038L91.6787 52.2384L91.9119 51.043C92.2399 49.3773 93.8542 48.2925 95.5179 48.6185Z" fill="#F79595"/>
<path d="M64.3617 33.8781C67.0632 33.8781 69.2532 32.047 69.2532 29.7882C69.2532 27.5294 67.0632 25.6982 64.3617 25.6982C61.6601 25.6982 59.4701 27.5294 59.4701 29.7882C59.4701 32.047 61.6601 33.8781 64.3617 33.8781Z" fill="#EE6161"/>
<path d="M46.7097 60.6044C49.6625 60.6044 52.0563 58.2106 52.0563 55.2578C52.0563 52.3049 49.6625 49.9111 46.7097 49.9111C43.7568 49.9111 41.363 52.3049 41.363 55.2578C41.363 58.2106 43.7568 60.6044 46.7097 60.6044Z" fill="#EE6161"/>
<path d="M67.5469 56.3008C69.6611 56.3008 71.375 54.5869 71.375 52.4727C71.375 50.3584 69.6611 48.6445 67.5469 48.6445C65.4327 48.6445 63.7188 50.3584 63.7188 52.4727C63.7188 54.5869 65.4327 56.3008 67.5469 56.3008Z" fill="#F9B1B1"/>
<path d="M53.4088 74.8763C55.4643 74.8763 57.1307 73.21 57.1307 71.1544C57.1307 69.0989 55.4643 67.4326 53.4088 67.4326C51.3533 67.4326 49.687 69.0989 49.687 71.1544C49.687 73.21 51.3533 74.8763 53.4088 74.8763Z" fill="#F9B1B1"/>
<path d="M28.2469 45.1865C28.2469 31.8673 34.6008 20.0294 44.4387 12.5389C43.2901 12.701 42.1561 12.9199 41.046 13.1922C40.8109 13.2495 40.5659 13.1586 40.4276 12.959L35.8592 6.37133L36.0153 6.31205C37.5605 5.7173 38.4319 4.02 37.9102 2.45112C37.355 0.773573 35.5214 -0.0800212 33.8912 0.546343L28.086 2.77912C26.5428 3.3719 25.6695 5.0692 26.1911 6.64005C26.7463 8.31563 28.582 9.1712 30.2101 8.54483L31.3482 8.10618L32.5476 16.0908C32.5832 16.3299 32.4666 16.5651 32.2572 16.6856C29.0601 18.4975 26.1812 20.8014 23.7232 23.4966C23.5533 23.6803 23.2885 23.7396 23.0593 23.6408L17.8508 21.3883C18.6609 20.1118 18.3724 18.4086 17.1454 17.4819C16.6158 17.0827 15.9954 16.8891 15.3809 16.8891C14.4937 16.8891 13.6184 17.2902 13.0414 18.0509L10.5597 21.331C9.60728 22.5896 9.75548 24.4035 10.9687 25.4152C12.2629 26.492 14.1795 26.2609 15.1833 24.933L15.5074 24.5062L19.232 28.8809C19.392 29.0706 19.4137 29.3374 19.2912 29.5507C17.092 33.3603 15.5963 37.6263 14.9837 42.1709C14.9521 42.412 14.7763 42.6076 14.5392 42.6629L6.72838 44.4946C6.73826 42.6767 5.29189 41.1869 3.47998 41.1395C1.61275 41.0901 0.0675829 42.6649 0.0517756 44.5341L0.000401908 50.2504C-0.0173813 52.088 1.47048 53.5877 3.30808 53.5877C4.2328 53.5877 5.07059 53.2162 5.67917 52.6116C6.28973 52.009 6.6691 51.1731 6.67701 50.2504L6.68491 49.3276L14.553 51.1455C14.7881 51.1988 14.964 51.3945 14.9976 51.6355C15.5923 55.9331 16.9755 59.9798 18.9968 63.6234C19.1173 63.8387 19.0897 64.1075 18.9257 64.2932L14.0017 69.8574C12.9011 68.4011 10.8047 68.1008 9.33461 69.2587C7.95542 70.3454 7.72226 72.3529 8.72405 73.7934L10.5142 76.372C11.5417 77.8499 13.5749 78.3103 15.0806 77.3204C16.523 76.3719 16.9676 74.4988 16.1772 73.0208L23.168 70.1538C23.3932 70.0609 23.6521 70.1202 23.818 70.3C26.5586 73.2777 29.813 75.7732 33.4407 77.6464C33.6561 77.759 33.7826 77.9883 33.7549 78.2293L32.8065 86.7988L32.6741 86.7514C30.7061 86.0342 28.4476 87.034 27.7679 89.0158C27.106 90.9384 28.1058 93.0427 30.0224 93.7402L35.7506 95.8288C37.8055 96.5796 39.487 95.402 39.487 93.2146C39.6411 92.7918 39.7143 92.3591 39.7143 91.9323C39.7143 90.4069 38.7737 88.9743 37.2562 88.4211L37.0922 88.3618L41.7534 81.0489C41.8838 80.8454 42.1268 80.7446 42.3639 80.7921C44.6106 81.2505 46.9342 81.4935 49.3172 81.4935C49.5976 81.4935 49.8825 81.49 50.1613 81.4834C37.1347 74.6142 28.2469 60.9369 28.2469 45.1865Z" fill="#F37C7C"/>
<path d="M30.1205 66.1273C32.2618 66.1273 33.9977 64.3915 33.9977 62.2502C33.9977 60.1089 32.2618 58.373 30.1205 58.373C27.9793 58.373 26.2434 60.1089 26.2434 62.2502C26.2434 64.3915 27.9793 66.1273 30.1205 66.1273Z" fill="#EE6161"/>
<path d="M58.8152 45.1865H57.5051C56.6865 45.1865 56.0232 44.523 56.0232 43.7046C56.0232 42.8862 56.6865 42.2227 57.5051 42.2227H58.8152C59.6338 42.2227 60.2971 42.8862 60.2971 43.7046C60.2971 44.523 59.6338 45.1865 58.8152 45.1865Z" fill="#F9B1B1"/>
<path d="M41.3627 71.0908H40.0167C39.1981 71.0908 38.5348 70.4273 38.5348 69.6089C38.5348 68.7905 39.1981 68.127 40.0167 68.127H41.3627C42.1813 68.127 42.8446 68.7905 42.8446 69.6089C42.8446 70.4273 42.1813 71.0908 41.3627 71.0908Z" fill="#F9B1B1"/>
<path d="M27.5399 49.5107H26.2433C25.4247 49.5107 24.7614 48.8472 24.7614 48.0288C24.7614 47.2104 25.4247 46.5469 26.2433 46.5469H27.5399C28.3585 46.5469 29.0218 47.2104 29.0218 48.0288C29.0218 48.8472 28.3585 49.5107 27.5399 49.5107Z" fill="#EE6161"/>
<path d="M53.8604 23.582H52.056C51.2374 23.582 50.5741 22.9185 50.5741 22.1001C50.5741 21.2817 51.2374 20.6182 52.056 20.6182H53.8604C54.6791 20.6182 55.3424 21.2817 55.3424 22.1001C55.3424 22.9185 54.6791 23.582 53.8604 23.582Z" fill="#F9B1B1"/>
<path d="M65.7113 66.2666H63.7188C62.9001 66.2666 62.2368 65.6031 62.2368 64.7847C62.2368 63.9662 62.9001 63.3027 63.7188 63.3027H65.7113C66.5299 63.3027 67.1932 63.9662 67.1932 64.7847C67.1932 65.6031 66.5297 66.2666 65.7113 66.2666Z" fill="#EE6161"/>
<path d="M43.1082 40.5608C47.5331 37.0717 48.7579 31.2473 45.8439 27.5519C42.9299 23.8564 36.9805 23.6892 32.5556 27.1783C28.1307 30.6675 26.9059 36.4919 29.8199 40.1873C32.7339 43.8828 38.6832 44.05 43.1082 40.5608Z" fill="#EE6161"/>
</svg>
