<svg width="32" height="22" viewBox="0 0 72 62" fill="none" xmlns="http://www.w3.org/2000/svg">
<path d="M67.5754 24.5914L9.60123 0.53547C7.15887 -0.478075 4.39962 -0.0322102 2.40046 1.69848C0.401295 3.42945 -0.434859 6.0965 0.218571 8.65871L5.37878 28.8948H30.6439C31.8065 28.8948 32.7491 29.8373 32.7491 31.0001C32.7491 32.1627 31.8066 33.1053 30.6439 33.1053H5.37878L0.218571 53.3413C-0.434859 55.9037 0.401155 58.5707 2.40046 60.3015C4.40369 62.0357 7.16322 62.4761 9.60137 61.4645L67.5756 37.4088C70.2151 36.3135 71.8547 33.8578 71.8547 31.0001C71.8547 28.1423 70.2151 25.6865 67.5754 24.5914Z" fill="black" fill-opacity="0.75"/>
</svg>
